<svg xmlns="http://www.w3.org/2000/svg" viewBox="0 0 94.43 106.32"><defs><style>.cls-1{fill:none;stroke:#3754d1;stroke-linejoin:round;stroke-width:2.4px;}.cls-2{fill:#3754d1;}</style></defs><g id="레이어_2" data-name="레이어 2"><g id="Layer_1" data-name="Layer 1"><line class="cls-1" x1="47.22" y1="62.92" x2="47.22" y2="99.74"/><polyline class="cls-1" points="35.48 62.92 35.48 93.7 18.7 93.7"/><polyline class="cls-1" points="24.06 62.37 24.06 83.56 6.02 83.56"/><circle class="cls-1" cx="4.04" cy="83.56" r="2.84"/><circle class="cls-1" cx="16.59" cy="93.7" r="2.84"/><polyline class="cls-1" points="58.95 62.92 58.95 93.7 75.7 93.7"/><polyline class="cls-1" points="70.37 62.37 70.37 83.56 88.17 83.56"/><circle class="cls-1" cx="90.39" cy="83.56" r="2.84"/><circle class="cls-1" cx="77.84" cy="93.7" r="2.84"/><circle class="cls-1" cx="47.22" cy="102.28" r="2.84"/><rect class="cls-1" x="16.28" y="1.2" width="61.86" height="61.86"/><path class="cls-2" d="M46.12,38.12H36.56l-1.73,4.79H29.14l9.57-24.68h5.72L54,42.91H47.85Zm-1.69-4.78-3.09-8.6-3.09,8.6Z"/><path class="cls-2" d="M62,18.23V42.91H56.48V18.23Z"/></g></g></svg>