<svg xmlns="http://www.w3.org/2000/svg" viewBox="0 0 90.94 95.41"><defs><style>.cls-1{fill:none;stroke:#3754d1;stroke-linejoin:round;stroke-width:2.4px;}.cls-2{fill:#3754d1;}</style></defs><g id="레이어_2" data-name="레이어 2"><g id="Layer_1" data-name="Layer 1"><path class="cls-1" d="M88.49,60.71a4.46,4.46,0,0,0-5.88-.49L65.42,73s0-.07,0-.1a3.56,3.56,0,0,0-3.67-2.47l-11.57.92-9.36-3a11.66,11.66,0,0,0-9.19.89l-8.38,4.64H16.79V91.2h7.13l29.21,3a10.38,10.38,0,0,0,8-2.61L88.26,67.13A4.47,4.47,0,0,0,88.49,60.71Z"/><rect class="cls-1" x="1.2" y="72.81" width="10.86" height="21.13"/><path class="cls-1" d="M50.07,53.05A19.68,19.68,0,0,1,30.38,33.36H21a29.08,29.08,0,0,0,46.4,23.36c-1.62-2.22-3.56-4.88-5.56-7.6A19.54,19.54,0,0,1,50.07,53.05Z"/><path class="cls-1" d="M50.07,13.67A19.64,19.64,0,0,1,64,19.44l6.64-6.64A29.08,29.08,0,0,0,21,33.36h9.39A19.69,19.69,0,0,1,50.07,13.67Z"/><path class="cls-1" d="M69.76,33.36a19.69,19.69,0,0,1-1.28,6.93l8.81,3.31a29.08,29.08,0,0,0-6.66-30.8L64,19.44A19.64,19.64,0,0,1,69.76,33.36Z"/><path class="cls-1" d="M77.29,43.6l-8.81-3.31a19.68,19.68,0,0,1-6.65,8.83c2,2.72,3.94,5.38,5.56,7.6A29.17,29.17,0,0,0,77.29,43.6Z"/><polyline class="cls-1" points="27.25 51.39 21.81 59.48 11.09 59.48"/><line class="cls-1" x1="7.93" y1="59.48" x2="2.39" y2="59.48"/><polyline class="cls-1" points="66.05 9.29 71.49 1.2 82.21 1.2"/><line class="cls-1" x1="85.36" y1="1.2" x2="90.91" y2="1.2"/><path class="cls-1" d="M65.4,72.89S66,76,65,77.21s-13.35,2.51-13.35,2.51"/><path class="cls-2" d="M49.13,37.37h-5.5l-1,2.75H39.36l5.5-14.18h3.29l5.5,14.18H50.12Zm-1-2.75-1.77-4.94L44.6,34.62Z"/><path class="cls-2" d="M58.25,25.94V40.12H55.08V25.94Z"/></g></g></svg>