<svg xmlns="http://www.w3.org/2000/svg" viewBox="0 0 103.81 98.85"><defs><style>.cls-1{fill:none;stroke:#3754d1;stroke-linejoin:round;stroke-width:2.4px;}</style></defs><g id="레이어_2" data-name="레이어 2"><g id="Layer_1" data-name="Layer 1"><polygon class="cls-1" points="32.39 47.18 51.91 33 51.91 11.99 12.41 40.69 12.41 40.69 32.39 47.18 32.39 47.18"/><polygon class="cls-1" points="71.42 47.18 63.97 70.12 76.32 87.12 91.4 40.69 71.42 47.18"/><polygon class="cls-1" points="51.91 33 71.42 47.18 71.42 47.18 91.4 40.69 91.4 40.69 51.91 11.99 51.91 33 51.91 33"/><polygon class="cls-1" points="63.97 70.12 39.85 70.12 39.85 70.12 27.5 87.12 27.5 87.12 76.32 87.12 76.32 87.12 63.97 70.12 63.97 70.12"/><polygon class="cls-1" points="32.39 47.18 12.41 40.69 27.5 87.12 39.85 70.12 32.39 47.18"/><polygon class="cls-1" points="51.91 33 32.39 47.18 32.39 47.18 51.91 53.52 51.91 33"/><polygon class="cls-1" points="32.39 47.18 39.85 70.12 51.91 53.52 32.39 47.18"/><polygon class="cls-1" points="51.91 33 51.91 33 51.91 53.52 71.42 47.18 71.42 47.18 51.91 33"/><polygon class="cls-1" points="39.85 70.12 39.85 70.12 63.97 70.12 63.97 70.12 51.91 53.52 39.85 70.12"/><polygon class="cls-1" points="63.97 70.12 71.42 47.18 51.91 53.52 63.97 70.12"/><rect class="cls-1" x="48.84" y="1.2" width="6.14" height="6.14"/><rect class="cls-1" x="2" y="35.23" width="6.14" height="6.14" transform="translate(-32.93 31.28) rotate(-72)"/><rect class="cls-1" x="19.89" y="90.3" width="6.14" height="6.14" transform="translate(-13.35 182.39) rotate(-144)"/><rect class="cls-1" x="77.79" y="90.3" width="6.14" height="6.14" transform="translate(201.15 121.37) rotate(144)"/><rect class="cls-1" x="95.68" y="35.23" width="6.14" height="6.14" transform="translate(104.66 -67.45) rotate(72)"/></g></g></svg>