<svg xmlns="http://www.w3.org/2000/svg" viewBox="0 0 84.91 84.91"><defs><style>.cls-1{fill:none;stroke:#3754d1;stroke-linejoin:round;stroke-width:2.4px;}</style></defs><g id="레이어_2" data-name="레이어 2"><g id="Layer_1" data-name="Layer 1"><polyline class="cls-1" points="84.91 83.71 1.2 83.71 1.2 0"/><line class="cls-1" x1="1.2" y1="8.42" x2="7.47" y2="8.42"/><line class="cls-1" x1="1.2" y1="17.43" x2="7.47" y2="17.43"/><line class="cls-1" x1="1.2" y1="26.43" x2="7.47" y2="26.43"/><line class="cls-1" x1="1.2" y1="35.43" x2="7.47" y2="35.43"/><line class="cls-1" x1="1.2" y1="44.44" x2="7.47" y2="44.44"/><line class="cls-1" x1="1.2" y1="53.44" x2="7.47" y2="53.44"/><line class="cls-1" x1="1.2" y1="62.45" x2="7.47" y2="62.45"/><line class="cls-1" x1="1.2" y1="71.45" x2="7.47" y2="71.45"/><line class="cls-1" x1="11.54" y1="83.71" x2="11.54" y2="77.43"/><line class="cls-1" x1="20.54" y1="83.71" x2="20.54" y2="77.43"/><line class="cls-1" x1="29.55" y1="83.71" x2="29.55" y2="77.43"/><line class="cls-1" x1="38.55" y1="83.71" x2="38.55" y2="77.43"/><line class="cls-1" x1="47.55" y1="83.71" x2="47.55" y2="77.43"/><line class="cls-1" x1="56.56" y1="83.71" x2="56.56" y2="77.43"/><line class="cls-1" x1="65.56" y1="83.71" x2="65.56" y2="77.43"/><line class="cls-1" x1="74.57" y1="83.71" x2="74.57" y2="77.43"/><polyline class="cls-1" points="29.55 73.8 20.54 26.43 11.54 73.8"/><polyline class="cls-1" points="74.57 73.8 65.56 50.11 56.56 73.8"/><polyline class="cls-1" points="56.56 73.8 43.05 3.72 29.55 73.8"/></g></g></svg>