<svg xmlns="http://www.w3.org/2000/svg" viewBox="0 0 70.15 94.54"><defs><style>.cls-1{fill:none;}.cls-1,.cls-2{stroke:#3754d1;stroke-linejoin:round;stroke-width:2.4px;}.cls-2{fill:#fff;}</style></defs><g id="레이어_2" data-name="레이어 2"><g id="Layer_1" data-name="Layer 1"><rect class="cls-1" x="1.2" y="1.2" width="67.76" height="17.25" rx="5.23"/><line class="cls-2" x1="8.64" y1="9.82" x2="12.38" y2="9.82"/><line class="cls-2" x1="16.03" y1="9.82" x2="19.77" y2="9.82"/><line class="cls-2" x1="23.42" y1="9.82" x2="27.16" y2="9.82"/><line class="cls-2" x1="7.33" y1="21.18" x2="7.33" y2="24.99"/><line class="cls-2" x1="62.83" y1="21.18" x2="62.83" y2="24.99"/><rect class="cls-1" x="1.2" y="27.83" width="67.76" height="17.25" rx="5.23"/><line class="cls-2" x1="8.64" y1="36.45" x2="12.38" y2="36.45"/><line class="cls-2" x1="16.03" y1="36.45" x2="19.77" y2="36.45"/><line class="cls-2" x1="23.42" y1="36.45" x2="27.16" y2="36.45"/><line class="cls-2" x1="7.33" y1="47.81" x2="7.33" y2="51.62"/><line class="cls-2" x1="62.83" y1="47.81" x2="62.83" y2="51.62"/><rect class="cls-1" x="1.2" y="54.46" width="67.76" height="17.25" rx="5.23"/><line class="cls-2" x1="8.64" y1="63.09" x2="12.38" y2="63.09"/><line class="cls-2" x1="16.03" y1="63.09" x2="19.77" y2="63.09"/><line class="cls-2" x1="23.42" y1="63.09" x2="27.16" y2="63.09"/><circle class="cls-1" cx="35.08" cy="88.98" r="4.36"/><line class="cls-2" x1="35.08" y1="81.19" x2="35.08" y2="75.13"/><line class="cls-2" x1="26.82" y1="88.98" x2="13.67" y2="88.98"/><line class="cls-2" x1="43.33" y1="88.98" x2="56.49" y2="88.98"/></g></g></svg>